<svg width="14" height="13" viewBox="0 0 14 13" fill="none" xmlns="http://www.w3.org/2000/svg">
  <path d="M9.667 3.167a.667.667 0 1 1 1.333 0 .667.667 0 0 1-1.334 0" fill="#fff"/>
  <path fill-rule="evenodd" clip-rule="evenodd" d="M7 3.333a3.167 3.167 0 1 0 0 6.334 3.167 3.167 0 0 0 0-6.334M4.833 6.5a2.167 2.167 0 1 1 4.334 0 2.167 2.167 0 0 1-4.334 0" fill="#fff"/>
  <path fill-rule="evenodd" clip-rule="evenodd" d="M10.505.389a31.8 31.8 0 0 0-7.01 0A2.93 2.93 0 0 0 .913 2.943a30.6 30.6 0 0 0 0 7.114 2.926 2.926 0 0 0 2.582 2.554c2.31.258 4.7.258 7.01 0a2.93 2.93 0 0 0 2.582-2.554c.277-2.363.277-4.75 0-7.114A2.926 2.926 0 0 0 10.505.39m-6.9.993a30.8 30.8 0 0 1 6.79 0c.886.1 1.596.8 1.7 1.678a29.6 29.6 0 0 1 0 6.88 1.93 1.93 0 0 1-1.7 1.677 30.8 30.8 0 0 1-6.79 0 1.93 1.93 0 0 1-1.7-1.677 29.6 29.6 0 0 1 0-6.88 1.93 1.93 0 0 1 1.7-1.677z" fill="#fff"/>
</svg>
