<svg width="16" height="17" viewBox="0 0 16 17" fill="none" xmlns="http://www.w3.org/2000/svg">
  <path d="M8 .5a8 8 0 0 0-2.916 15.45c-.068-.634-.134-1.603.029-2.294.146-.625.937-3.975.937-3.975s-.24-.478-.24-1.187c0-1.113.643-1.944 1.446-1.944.681 0 1.013.513 1.013 1.128 0 .688-.438 1.713-.663 2.663-.187.796.4 1.446 1.185 1.446 1.421 0 2.515-1.5 2.515-3.662 0-1.916-1.375-3.256-3.34-3.256-2.275 0-3.613 1.706-3.613 3.472 0 .687.266 1.425.597 1.825a.24.24 0 0 1 .056.228c-.059.253-.196.796-.222.906-.034.147-.115.178-.268.106-1-.465-1.625-1.925-1.625-3.1 0-2.525 1.834-4.84 5.284-4.84 2.775 0 4.931 1.978 4.931 4.621 0 2.757-1.737 4.975-4.15 4.975-.809 0-1.572-.421-1.834-.918l-.497 1.903c-.181.693-.669 1.566-.994 2.097A8 8 0 0 0 16 8.5a8 8 0 0 0-8-8" fill="#fff"/>
</svg>
