<svg width="16" height="13" viewBox="0 0 16 13" fill="none" xmlns="http://www.w3.org/2000/svg">
  <path d="M5.033 13c6.037 0 9.34-5.002 9.34-9.339q0-.212-.01-.425A6.7 6.7 0 0 0 16 1.536a6.5 6.5 0 0 1-1.884.516A3.3 3.3 0 0 0 15.559.237a6.6 6.6 0 0 1-2.083.797A3.287 3.287 0 0 0 7.88 4.027 9.32 9.32 0 0 1 1.115.6a3.286 3.286 0 0 0 1.016 4.38 3.3 3.3 0 0 1-1.487-.41v.041A3.28 3.28 0 0 0 3.277 7.83a3.26 3.26 0 0 1-1.48.056 3.29 3.29 0 0 0 3.065 2.281A6.58 6.58 0 0 1 0 11.526 9.3 9.3 0 0 0 5.033 13" fill="#fff"/>
</svg>
