<svg width="16" height="13" viewBox="0 0 16 13" fill="none" xmlns="http://www.w3.org/2000/svg">
<path d="M15.8407 3.29995C15.8407 3.29995 15.6843 2.19661 15.203 1.71261C14.5937 1.07495 13.9123 1.07195 13.6 1.03428C11.3627 0.871948 8.00333 0.871948 8.00333 0.871948H7.99667C7.99667 0.871948 4.63767 0.871948 2.4 1.03428C2.08733 1.07195 1.40633 1.07495 0.796667 1.71261C0.316 2.19661 0.162667 3.29995 0.162667 3.29995C0.162667 3.29995 0 4.59662 0 5.89062V7.10295C0 8.39695 0.159333 9.69362 0.159333 9.69362C0.159333 9.69362 0.315667 10.797 0.793667 11.2813C1.403 11.9186 2.203 11.8969 2.55933 11.9656C3.84067 12.0876 8 12.1249 8 12.1249C8 12.1249 11.3623 12.1186 13.6 11.9593C13.9127 11.9219 14.5937 11.9186 15.2033 11.2813C15.6843 10.797 15.8407 9.69362 15.8407 9.69362C15.8407 9.69362 16 8.40028 16 7.10328V5.89095C16 4.59728 15.8407 3.30028 15.8407 3.30028V3.29995ZM6.34667 8.57495V4.07828L10.6683 6.33428L6.34667 8.57495V8.57495Z" fill="white"/>
</svg>
