<svg width="36" height="34" viewBox="0 0 36 34" fill="none" xmlns="http://www.w3.org/2000/svg">
  <path d="M36 31.77c0 .4-.146.786-.406 1.07-.26.283-.611.442-.979.442H1.385c-.368 0-.72-.16-.98-.443A1.6 1.6 0 0 1 0 31.77V1.513C0 1.112.146.727.406.443S1.017 0 1.385 0c.367 0 .719.16.979.443s.405.669.405 1.07v20.554l8.713-9.522q.195-.212.45-.328a1.28 1.28 0 0 1 1.06 0q.254.116.45.328L18 17.528l9.12-9.964h-3.582c-.367 0-.719-.16-.979-.443a1.6 1.6 0 0 1-.405-1.07c0-.4.146-.786.405-1.07.26-.283.612-.443.98-.443h6.922c.368 0 .72.16.98.444.26.283.405.668.405 1.07v7.564c0 .4-.146.786-.405 1.07a1.33 1.33 0 0 1-.98.442c-.367 0-.719-.16-.978-.443a1.6 1.6 0 0 1-.406-1.07V9.704L18.98 20.737c-.129.14-.282.252-.45.329a1.28 1.28 0 0 1-1.06 0 1.4 1.4 0 0 1-.45-.329l-4.558-4.983-9.693 10.59v3.913h31.846c.368 0 .72.159.98.443.26.283.405.668.405 1.07" fill="#EE2B7B"/>
</svg>
