<svg width="52" height="51" viewBox="0 0 52 51" fill="none" xmlns="http://www.w3.org/2000/svg">
  <path d="M45.5 9.562v9.563c0 .423-.171.828-.476 1.127a1.64 1.64 0 0 1-1.149.467h-9.75c-.431 0-.844-.168-1.149-.467a1.58 1.58 0 0 1-.476-1.127c0-.423.171-.828.476-1.127a1.64 1.64 0 0 1 1.149-.467h5.828l-2.972-2.914c-3.02-2.976-7.12-4.655-11.402-4.668h-.09c-4.246-.01-8.324 1.62-11.353 4.536a1.644 1.644 0 0 1-2.272-.05 1.58 1.58 0 0 1-.462-1.115c0-.416.166-.816.463-1.114 3.671-3.52 8.61-5.477 13.743-5.447s10.05 2.043 13.678 5.605l2.964 2.914V9.562c0-.422.171-.828.476-1.126a1.64 1.64 0 0 1 1.149-.467c.431 0 .844.168 1.149.467.305.298.476.704.476 1.126m-7.635 26.953c-3.06 2.93-7.174 4.56-11.45 4.536-4.277-.025-8.372-1.702-11.396-4.668l-2.972-2.914h5.828c.431 0 .844-.168 1.149-.467s.476-.704.476-1.127-.171-.828-.476-1.127a1.64 1.64 0 0 0-1.149-.467h-9.75c-.431 0-.844.168-1.149.467a1.58 1.58 0 0 0-.476 1.127v9.563c0 .422.171.828.476 1.126a1.645 1.645 0 0 0 2.299 0c.304-.298.475-.704.475-1.126v-5.716l2.972 2.914c3.624 3.573 8.546 5.588 13.684 5.602h.108c5.094.013 9.99-1.943 13.624-5.444.296-.298.462-.698.462-1.114s-.166-.816-.462-1.114a1.64 1.64 0 0 0-1.125-.48 1.64 1.64 0 0 0-1.146.429z" fill="#EE2B7B"/>
</svg>
