<svg width="40" height="36" viewBox="0 0 40 36" fill="none" xmlns="http://www.w3.org/2000/svg">
  <path d="M3.75 14.625H7.5v9H5c-.332 0-.65.119-.884.33a1.07 1.07 0 0 0-.366.795c0 .298.132.584.366.796.235.21.552.329.884.329h30c.331 0 .65-.119.884-.33.234-.21.366-.497.366-.795s-.132-.584-.366-.796a1.32 1.32 0 0 0-.884-.329h-2.5v-9h3.75c.272 0 .536-.08.753-.228a1.13 1.13 0 0 0 .449-.59 1.02 1.02 0 0 0-.038-.715 1.16 1.16 0 0 0-.51-.55l-16.25-9A1.36 1.36 0 0 0 20 3.376c-.231 0-.458.057-.655.166l-16.25 9c-.231.129-.41.322-.509.55a1.02 1.02 0 0 0-.038.714c.075.236.232.443.449.59.217.149.481.229.753.229m6.25 0h5v9h-5zm12.5 0v9h-5v-9zm7.5 9h-5v-9h5zM20 5.82l11.834 6.555H8.166zm18.75 23.43c0 .298-.132.584-.366.796-.234.21-.553.329-.884.329h-35c-.332 0-.65-.119-.884-.33a1.07 1.07 0 0 1-.366-.795c0-.298.132-.584.366-.796.235-.21.552-.329.884-.329h35c.331 0 .65.119.884.33.234.21.366.497.366.795" fill="#EE2B7B"/>
</svg>
