<svg width="31" height="34" viewBox="0 0 31 34" fill="none" xmlns="http://www.w3.org/2000/svg">
  <path d="M21.815 13.868h6.889c.609 0 1.193-.293 1.623-.813.431-.52.673-1.225.673-1.96V2.773c0-.736-.242-1.442-.673-1.962C29.897.292 29.313 0 28.704 0h-6.89c-.608 0-1.192.292-1.623.812-.43.52-.672 1.226-.672 1.962v2.773h-2.297c-.913 0-1.79.438-2.435 1.219-.646.78-1.01 1.838-1.01 2.941v5.547H9.186v-1.386c0-.736-.242-1.441-.672-1.962s-1.015-.812-1.624-.812H2.296c-.609 0-1.193.292-1.623.812-.431.52-.673 1.226-.673 1.962v5.547c0 .735.242 1.44.673 1.96.43.521 1.014.813 1.623.813H6.89c.609 0 1.193-.292 1.624-.812.43-.52.672-1.226.672-1.961v-1.387h4.593v5.547c0 1.103.363 2.162 1.009 2.942s1.522 1.218 2.435 1.218h2.296v2.774c0 .735.242 1.44.673 1.96.43.521 1.015.813 1.624.813h6.889c.609 0 1.193-.292 1.623-.812.431-.52.673-1.226.673-1.961v-8.32c0-.736-.242-1.442-.673-1.962-.43-.52-1.014-.812-1.623-.812h-6.89c-.608 0-1.192.292-1.623.812-.43.52-.672 1.226-.672 1.961v2.774h-2.297c-.304 0-.596-.146-.812-.407a1.55 1.55 0 0 1-.336-.98V9.707c0-.367.121-.72.336-.98s.508-.406.812-.406h2.296v2.773c0 .736.242 1.441.673 1.961.43.52 1.015.813 1.624.813M6.889 19.415H2.296v-5.547H6.89zm14.926 2.773h6.889v8.32h-6.89zm0-19.414h6.889v8.32h-6.89z" fill="#EE2B7B"/>
</svg>
