<svg width="39" height="35" viewBox="0 0 39 35" fill="none" xmlns="http://www.w3.org/2000/svg">
  <path d="M34.5 0h-30C3.307 0 2.162.46 1.318 1.281A4.3 4.3 0 0 0 0 4.375v20.417c0 1.16.474 2.273 1.318 3.093A4.57 4.57 0 0 0 4.5 29.167H18v2.916h-4.5c-.398 0-.78.154-1.06.428-.282.273-.44.644-.44 1.03 0 .387.158.758.44 1.032.28.273.662.427 1.06.427h12c.398 0 .78-.154 1.06-.427.282-.274.44-.645.44-1.031 0-.387-.158-.758-.44-1.032a1.52 1.52 0 0 0-1.06-.427H21v-2.916h13.5a4.57 4.57 0 0 0 3.182-1.282A4.3 4.3 0 0 0 39 24.792V4.375c0-1.16-.474-2.273-1.318-3.094A4.57 4.57 0 0 0 34.5 0m-30 2.917h30c.398 0 .78.153 1.06.427.282.273.44.644.44 1.031v14.583H3V4.375c0-.387.158-.758.44-1.031a1.52 1.52 0 0 1 1.06-.427m30 23.333h-30a1.52 1.52 0 0 1-1.06-.427A1.44 1.44 0 0 1 3 24.792v-2.917h33v2.917c0 .386-.158.757-.44 1.03a1.52 1.52 0 0 1-1.06.428" fill="#EE2B7B"/>
</svg>
