<svg width="51" height="53" viewBox="0 0 51 53" fill="none" xmlns="http://www.w3.org/2000/svg">
  <path d="M43.031 14.906c0 .44-.168.86-.466 1.171-.3.311-.705.485-1.127.485h-6.376a1.56 1.56 0 0 1-1.126-.485 1.7 1.7 0 0 1-.467-1.17c0-.44.168-.861.466-1.172.3-.31.705-.485 1.127-.485h6.376c.422 0 .828.175 1.127.485.298.31.466.732.466 1.171m-1.593 4.969h-6.376a1.56 1.56 0 0 0-1.126.485 1.7 1.7 0 0 0-.467 1.171c0 .44.168.86.466 1.171.3.311.705.485 1.127.485h6.376c.422 0 .828-.174 1.127-.485a1.7 1.7 0 0 0 .466-1.17c0-.44-.168-.861-.466-1.172a1.56 1.56 0 0 0-1.127-.485m7.968-9.937v33.125a3.38 3.38 0 0 1-.933 2.342 3.13 3.13 0 0 1-2.254.97H30.28a3.13 3.13 0 0 1-2.254-.97 3.38 3.38 0 0 1-.933-2.343V39.75h-7.969v3.313h3.188c.422 0 .828.174 1.127.485.298.31.466.731.466 1.17 0 .44-.168.861-.466 1.172-.3.31-.705.485-1.128.485H12.75c-.423 0-.828-.175-1.127-.485a1.7 1.7 0 0 1-.467-1.171c0-.44.168-.86.467-1.171s.704-.486 1.127-.486h3.188V39.75H6.374a4.7 4.7 0 0 1-3.38-1.455 5.07 5.07 0 0 1-1.401-3.514V19.875a5.07 5.07 0 0 1 1.4-3.513 4.7 4.7 0 0 1 3.381-1.456h20.719V9.937c0-.878.336-1.72.933-2.342a3.13 3.13 0 0 1 2.254-.97h15.94a3.13 3.13 0 0 1 2.254.97 3.38 3.38 0 0 1 .933 2.343m-22.312 26.5v-18.22H6.375c-.423 0-.828.175-1.127.486a1.7 1.7 0 0 0-.467 1.171v14.906c0 .44.168.86.467 1.171s.704.486 1.127.486zm19.125 6.624V9.938H30.28v33.125zm-7.969-8.28c-.473 0-.935.145-1.328.418s-.7.66-.88 1.115a2.6 2.6 0 0 0-.137 1.435c.093.482.32.925.655 1.272.334.348.76.584 1.224.68s.944.047 1.38-.141a2.4 2.4 0 0 0 1.074-.915 2.56 2.56 0 0 0-.297-3.137 2.35 2.35 0 0 0-1.691-.728" fill="#EE2B7B"/>
</svg>
