<svg width="48" height="48" viewBox="0 0 48 48" fill="none" xmlns="http://www.w3.org/2000/svg">
  <g clip-path="url(#a)">
    <path d="M35.88 35.88A20.14 20.14 0 0 1 24 40C10 40 2 24 2 24a36.9 36.9 0 0 1 10.12-11.88m7.68-3.64A18.2 18.2 0 0 1 24 8c14 0 22 16 22 16a37 37 0 0 1-4.32 6.38m-13.44-2.14a6 6 0 1 1-8.48-8.48M2 2l44 44" stroke="#1E1E1E" stroke-width="4" stroke-linecap="round" stroke-linejoin="round"/>
  </g>
  <defs>
    <clipPath id="a">
      <path fill="#fff" d="M0 0h48v48H0z"/>
    </clipPath>
  </defs>
</svg>
