<svg width="32" height="35" viewBox="0 0 32 35" fill="none" xmlns="http://www.w3.org/2000/svg">
  <path d="m26.708 11.257-7-7.656a1 1 0 0 0-.325-.237.9.9 0 0 0-.383-.083H7c-.53 0-1.04.23-1.414.64A2.3 2.3 0 0 0 5 5.47V17.5c0 .29.105.568.293.773.187.206.442.32.707.32s.52-.114.707-.32c.188-.205.293-.483.293-.773V5.469h11v6.562c0 .29.105.569.293.774.187.205.442.32.707.32h6v16.406h-3a.96.96 0 0 0-.707.32 1.15 1.15 0 0 0-.293.774c0 .29.105.568.293.773.187.206.442.32.707.32h3c.53 0 1.04-.23 1.414-.64.375-.41.586-.967.586-1.547v-17.5c0-.143-.026-.286-.076-.418a1.1 1.1 0 0 0-.216-.356M20 7.015l3.586 3.923H20zM13.5 17.5a6.1 6.1 0 0 0-3.606 1.194c-1.067.779-1.9 1.885-2.394 3.181-1.193 0-2.338.519-3.182 1.442S3 25.49 3 26.797c0 1.305.474 2.557 1.318 3.48S6.307 31.72 7.5 31.72h6c1.724 0 3.377-.75 4.596-2.082C19.316 28.303 20 26.495 20 24.609s-.685-3.693-1.904-5.027C16.877 18.25 15.224 17.5 13.5 17.5m0 12.031h-6a2.38 2.38 0 0 1-1.684-.709 2.83 2.83 0 0 1-.809-1.764 2.92 2.92 0 0 1 .487-1.9 2.48 2.48 0 0 1 1.53-1.046c-.006.29.093.57.277.78a.96.96 0 0 0 .7.338.96.96 0 0 0 .714-.303c.192-.2.303-.476.309-.766a5.6 5.6 0 0 1 .166-.97 5 5 0 0 1 1.322-2.262 4.35 4.35 0 0 1 2.21-1.167 4.14 4.14 0 0 1 2.442.275 4.6 4.6 0 0 1 1.946 1.636c.498.732.8 1.6.872 2.51a5.3 5.3 0 0 1-.462 2.636 4.8 4.8 0 0 1-1.658 1.98 4.2 4.2 0 0 1-2.362.732" fill="#EE2B7B"/>
</svg>
