<svg width="43" height="42" viewBox="0 0 43 42" fill="none" xmlns="http://www.w3.org/2000/svg">
  <path d="M32.334 28.132a14.5 14.5 0 0 0 3.972-5.118 14.2 14.2 0 0 0 1.319-6.291c-.168-7.5-6.317-13.683-13.982-14.077a15.1 15.1 0 0 0-5.82.836A14.9 14.9 0 0 0 12.8 6.468a14.5 14.5 0 0 0-3.435 4.664 14.2 14.2 0 0 0-1.301 5.602L4.292 23.82l-.044.088a2.57 2.57 0 0 0-.054 1.938 2.65 2.65 0 0 0 1.322 1.445l.042.018 3.848 1.721v5.096c0 .696.283 1.364.787 1.856a2.72 2.72 0 0 0 1.9.769h8.063c.357 0 .699-.138.95-.384.252-.247.394-.58.394-.928s-.142-.682-.393-.929a1.36 1.36 0 0 0-.95-.384h-8.063v-5.937a1.3 1.3 0 0 0-.213-.71 1.34 1.34 0 0 0-.572-.485l-4.59-2.055 3.875-7.275c.1-.185.154-.39.156-.6 0-2.677.93-5.275 2.64-7.368a12.13 12.13 0 0 1 6.766-4.151V8.1a4 4 0 0 0-2.133 1.72 3.86 3.86 0 0 0-.496 2.659c.16.915.648 1.745 1.375 2.344a4.1 4.1 0 0 0 2.598.927 4.1 4.1 0 0 0 2.598-.927 3.92 3.92 0 0 0 1.375-2.344 3.86 3.86 0 0 0-.496-2.659 4 4 0 0 0-2.133-1.72V5.25c.218 0 .436 0 .655.016a12.3 12.3 0 0 1 6.583 2.348 11.9 11.9 0 0 1 4.157 5.511h-3.333a1.37 1.37 0 0 0-1.033.473l-4.285 5.023a4.13 4.13 0 0 0-2.774-.017 4.02 4.02 0 0 0-2.131 1.734 3.87 3.87 0 0 0-.486 2.668 3.93 3.93 0 0 0 1.39 2.344 4.1 4.1 0 0 0 2.611.917 4.1 4.1 0 0 0 2.6-.943 3.93 3.93 0 0 0 1.366-2.358 3.87 3.87 0 0 0-.513-2.663l3.885-4.553h3.324q.06.512.074 1.034a11.6 11.6 0 0 1-1.215 5.434 11.9 11.9 0 0 1-3.619 4.294c-.19.14-.338.325-.43.537a1.3 1.3 0 0 0-.097.676l1.343 10.5c.041.317.2.608.444.82a1.36 1.36 0 0 0 1.056.319 1.37 1.37 0 0 0 .895-.497 1.3 1.3 0 0 0 .273-.969zM21.5 13.125a1.37 1.37 0 0 1-.747-.221 1.3 1.3 0 0 1-.494-.59 1.28 1.28 0 0 1 .29-1.43 1.37 1.37 0 0 1 1.464-.284c.247.1.457.268.604.483a1.29 1.29 0 0 1-.167 1.658 1.36 1.36 0 0 1-.95.384m2.688 10.5a1.37 1.37 0 0 1-.747-.221 1.3 1.3 0 0 1-.495-.59 1.28 1.28 0 0 1 .291-1.43 1.37 1.37 0 0 1 1.464-.284c.246.1.456.268.604.483a1.29 1.29 0 0 1-.167 1.658 1.36 1.36 0 0 1-.95.384" fill="#EE2B7B"/>
</svg>
