<svg width="33" height="37" viewBox="0 0 33 37" fill="none" xmlns="http://www.w3.org/2000/svg">
  <path d="M16.5 0c-3.263 0-6.453 1.074-9.167 3.085S2.505 7.955 1.256 11.3a20.2 20.2 0 0 0-.939 10.576c.637 3.551 2.208 6.813 4.516 9.373s5.247 4.304 8.448 5.01c3.2.706 6.518.344 9.533-1.042 3.015-1.385 5.592-3.732 7.405-6.742S33 21.925 33 18.305c-.005-4.853-1.745-9.506-4.838-12.937C25.068 1.936 20.875.006 16.5 0m13.962 18.305a17 17 0 0 1-.529 4.224h-6.11c.39-2.8.39-5.648 0-8.448h6.11c.352 1.374.53 2.796.529 4.224m-18.087 7.04h8.25c-.813 2.955-2.224 5.665-4.125 7.921-1.9-2.257-3.311-4.966-4.125-7.92m-.619-2.815a27.5 27.5 0 0 1 0-8.449h9.5a27.5 27.5 0 0 1 0 8.449zm-9.218-4.225a17 17 0 0 1 .529-4.224h6.11a30.7 30.7 0 0 0 0 8.449h-6.11a17 17 0 0 1-.529-4.225m18.087-7.04h-8.25c.813-2.955 2.224-5.664 4.125-7.92 1.9 2.257 3.311 4.966 4.125 7.92m8.302 0h-5.65a25 25 0 0 0-3.539-8.026c1.964.523 3.802 1.511 5.39 2.897s2.885 3.135 3.806 5.129zM13.262 3.239a25 25 0 0 0-3.538 8.026H4.066c.92-1.994 2.22-3.744 3.807-5.13s3.425-2.373 5.389-2.896M4.066 25.346h5.658a25 25 0 0 0 3.538 8.026c-1.964-.523-3.802-1.512-5.39-2.897s-2.885-3.135-3.806-5.13m15.672 8.026a25 25 0 0 0 3.538-8.026h5.658c-.92 1.994-2.22 3.744-3.806 5.129-1.588 1.385-3.426 2.374-5.39 2.897" fill="#EE2B7B"/>
</svg>
