<svg width="38" height="44" viewBox="0 0 38 44" fill="none" xmlns="http://www.w3.org/2000/svg">
  <path d="M29.688 8.25h-9.5v-5.5c0-.365-.126-.714-.348-.972a1.11 1.11 0 0 0-.84-.403c-.315 0-.617.145-.84.403a1.5 1.5 0 0 0-.348.972v5.5h-9.5c-1.26 0-2.467.58-3.358 1.61-.891 1.032-1.391 2.431-1.391 3.89V33c0 1.459.5 2.858 1.39 3.89.892 1.03 2.1 1.61 3.36 1.61h21.374c1.26 0 2.469-.58 3.36-1.61.89-1.032 1.39-2.431 1.39-3.89V13.75c0-1.459-.5-2.858-1.39-3.89-.891-1.03-2.1-1.61-3.36-1.61M32.063 33c0 .73-.25 1.429-.696 1.944-.445.516-1.05.806-1.68.806H8.314c-.63 0-1.234-.29-1.68-.806-.445-.515-.695-1.215-.695-1.944V13.75c0-.73.25-1.429.695-1.944.446-.516 1.05-.806 1.68-.806h21.374c.63 0 1.235.29 1.68.806.445.515.695 1.215.695 1.944zm-7.72-9.625H13.657c-1.102 0-2.16.507-2.939 1.41-.78.902-1.217 2.126-1.217 3.403 0 1.276.438 2.5 1.217 3.403.78.902 1.837 1.409 2.94 1.409h10.687c1.102 0 2.16-.507 2.939-1.41.78-.902 1.217-2.126 1.217-3.402s-.438-2.5-1.217-3.403-1.837-1.41-2.94-1.41m-3.562 2.75v4.125H17.22v-4.125zm-8.906 2.063c0-.547.188-1.072.522-1.459s.787-.604 1.26-.604h1.187v4.125h-1.188c-.472 0-.925-.217-1.26-.604a2.24 2.24 0 0 1-.521-1.459m12.469 2.062h-1.188v-4.125h1.188c.472 0 .925.217 1.26.604.333.387.521.912.521 1.459s-.188 1.071-.522 1.458-.787.604-1.26.604M10.687 18.563c0-.408.105-.807.3-1.146.196-.34.475-.604.8-.76a1.56 1.56 0 0 1 1.03-.117c.345.08.662.276.911.564.25.288.419.656.488 1.056s.033.815-.102 1.192a2.03 2.03 0 0 1-.656.925 1.6 1.6 0 0 1-.99.348c-.472 0-.925-.217-1.259-.604a2.24 2.24 0 0 1-.521-1.459m13.063 0c0-.408.105-.807.3-1.146.196-.34.474-.604.8-.76a1.56 1.56 0 0 1 1.029-.117c.345.08.663.276.912.564s.418.656.487 1.056.034.815-.101 1.192a2.03 2.03 0 0 1-.656.925 1.6 1.6 0 0 1-.99.348c-.472 0-.925-.217-1.26-.604a2.24 2.24 0 0 1-.521-1.459" fill="#EE2B7B"/>
</svg>
