<svg width="45" height="48" viewBox="0 0 45 48" fill="none" xmlns="http://www.w3.org/2000/svg">
  <path d="M36.563 7.5H8.436c-.745 0-1.46.316-1.988.879a3.1 3.1 0 0 0-.824 2.121V21c0 9.885 4.486 15.876 8.25 19.16 4.053 3.537 8.085 4.737 8.261 4.788.242.07.497.07.738 0 .176-.051 4.203-1.251 8.262-4.787 3.753-3.285 8.239-9.276 8.239-19.161V10.5a3.1 3.1 0 0 0-.824-2.121 2.73 2.73 0 0 0-1.989-.879m-7.137 30.266A22.4 22.4 0 0 1 22.5 41.93a22.2 22.2 0 0 1-6.841-4.09 20.6 20.6 0 0 1-4.309-5.182l11.15-8.325 11.15 8.325a20.6 20.6 0 0 1-4.224 5.11M36.563 21q0 4.934-1.607 8.97l-11.65-8.698A1.35 1.35 0 0 0 22.5 21c-.289 0-.57.095-.807.272l-11.65 8.698C8.974 27.285 8.437 24.289 8.437 21V10.5h28.124z" fill="#EE2B7B"/>
</svg>
