<svg width="42" height="41" viewBox="0 0 42 41" fill="none" xmlns="http://www.w3.org/2000/svg">
  <path d="M22.969 32.672c0 .38-.116.752-.332 1.068a1.96 1.96 0 0 1-.884.707c-.36.146-.755.184-1.137.11a2 2 0 0 1-1.008-.526 1.9 1.9 0 0 1-.539-.984 1.9 1.9 0 0 1 .112-1.11c.15-.352.401-.652.725-.863a2 2 0 0 1 2.486.239c.37.36.577.85.577 1.359m15.927-18.738C33.85 9.894 27.526 7.685 21 7.685S8.15 9.893 3.104 13.934a1.3 1.3 0 0 0-.473.865 1.25 1.25 0 0 0 .292.939 1.3 1.3 0 0 0 .886.462c.347.033.693-.07.962-.285C9.347 12.252 15.082 10.25 21 10.25s11.653 2.002 16.23 5.665a1.335 1.335 0 0 0 1.847-.177 1.26 1.26 0 0 0-.181-1.804m-5.263 5.728a20.66 20.66 0 0 0-12.628-4.289 20.66 20.66 0 0 0-12.628 4.29 1.26 1.26 0 0 0-.213 1.8 1.336 1.336 0 0 0 1.844.208 18 18 0 0 1 10.997-3.735c3.992 0 7.867 1.316 10.997 3.735a1.33 1.33 0 0 0 .966.268 1.34 1.34 0 0 0 .878-.477 1.27 1.27 0 0 0 .275-.943 1.26 1.26 0 0 0-.488-.857M28.34 25.39a12.7 12.7 0 0 0-7.335-2.328c-2.636 0-5.203.815-7.335 2.328a1.26 1.26 0 0 0-.289 1.79 1.337 1.337 0 0 0 1.834.282 10 10 0 0 1 5.79-1.838c2.08 0 4.107.643 5.79 1.838a1.33 1.33 0 0 0 .977.23 1.33 1.33 0 0 0 .857-.512 1.27 1.27 0 0 0 .235-.953 1.26 1.26 0 0 0-.524-.837" fill="#EE2B7B"/>
</svg>
